<svg width="49" height="28" viewBox="0 0 49 28" fill="none" xmlns="http://www.w3.org/2000/svg">
<path d="M4.19397 13.788C2.88597 13.788 1.86597 13.512 1.13397 12.96C0.413974 12.408 0.0359737 11.646 -2.63527e-05 10.674H1.94397C1.96797 11.034 2.15397 11.364 2.50197 11.664C2.84997 11.964 3.41997 12.114 4.21197 12.114C4.88397 12.114 5.41197 11.982 5.79597 11.718C6.17997 11.454 6.37197 11.124 6.37197 10.728C6.37197 10.368 6.22797 10.086 5.93997 9.882C5.66397 9.666 5.18997 9.522 4.51797 9.45L3.56397 9.36C2.56797 9.252 1.77597 8.958 1.18797 8.478C0.611974 7.998 0.323974 7.35 0.323974 6.534C0.323974 5.886 0.485974 5.34 0.809974 4.896C1.13397 4.452 1.57797 4.11 2.14197 3.87C2.71797 3.63 3.37797 3.51 4.12197 3.51C5.27397 3.51 6.20397 3.768 6.91197 4.284C7.61997 4.788 7.98597 5.532 8.00997 6.516H6.08397C6.05997 6.144 5.88597 5.832 5.56197 5.58C5.23797 5.328 4.75797 5.202 4.12197 5.202C3.52197 5.202 3.05997 5.322 2.73597 5.562C2.42397 5.802 2.26797 6.108 2.26797 6.48C2.26797 6.816 2.38797 7.08 2.62797 7.272C2.86797 7.464 3.25797 7.59 3.79797 7.65L4.75197 7.74C5.84397 7.86 6.70797 8.166 7.34397 8.658C7.99197 9.138 8.31597 9.81 8.31597 10.674C8.31597 11.298 8.14197 11.844 7.79397 12.312C7.44597 12.78 6.95997 13.146 6.33597 13.41C5.72397 13.662 5.00997 13.788 4.19397 13.788ZM10.6194 13.5V0.36H12.7254V8.118H12.2934C12.2934 7.158 12.4134 6.336 12.6534 5.652C12.9054 4.956 13.2834 4.428 13.7874 4.068C14.3034 3.696 14.9514 3.51 15.7314 3.51H15.8214C16.9614 3.51 17.8194 3.894 18.3954 4.662C18.9834 5.43 19.2774 6.534 19.2774 7.974V13.5H17.1714V7.668C17.1714 6.972 16.9674 6.426 16.5594 6.03C16.1634 5.622 15.6474 5.418 15.0114 5.418C14.3274 5.418 13.7754 5.646 13.3554 6.102C12.9354 6.558 12.7254 7.158 12.7254 7.902V13.5H10.6194ZM22.6714 13.5V3.798H24.7774V13.5H22.6714ZM21.2494 5.418V3.798H24.7774V5.418H21.2494ZM23.3554 2.448C22.9234 2.448 22.5994 2.334 22.3834 2.106C22.1794 1.878 22.0774 1.584 22.0774 1.224C22.0774 0.875999 22.1794 0.588 22.3834 0.36C22.5994 0.119999 22.9234 -1.07288e-06 23.3554 -1.07288e-06C23.7994 -1.07288e-06 24.1234 0.119999 24.3274 0.36C24.5434 0.588 24.6514 0.875999 24.6514 1.224C24.6514 1.584 24.5434 1.878 24.3274 2.106C24.1234 2.334 23.7994 2.448 23.3554 2.448ZM27.9163 13.5V3.798H29.5903V7.956H29.3923C29.3923 6.996 29.5183 6.186 29.7703 5.526C30.0343 4.866 30.4303 4.368 30.9583 4.032C31.4863 3.684 32.1403 3.51 32.9203 3.51H33.0103C34.2103 3.51 35.1043 3.888 35.6923 4.644C36.2803 5.4 36.5743 6.504 36.5743 7.956V13.5H34.4683V7.668C34.4683 6.996 34.2763 6.456 33.8923 6.048C33.5083 5.628 32.9803 5.418 32.3083 5.418C31.6243 5.418 31.0723 5.634 30.6523 6.066C30.2323 6.486 30.0223 7.05 30.0223 7.758V13.5H27.9163ZM43.7303 13.824C42.8903 13.824 42.1583 13.68 41.5343 13.392C40.9103 13.104 40.4003 12.726 40.0043 12.258C39.6083 11.778 39.3083 11.244 39.1043 10.656C38.9123 10.056 38.8163 9.444 38.8163 8.82V8.478C38.8163 7.842 38.9123 7.23 39.1043 6.642C39.3083 6.042 39.6083 5.508 40.0043 5.04C40.4003 4.56 40.8983 4.182 41.4983 3.906C42.1103 3.618 42.8183 3.474 43.6223 3.474C44.6663 3.474 45.5363 3.702 46.2323 4.158C46.9283 4.614 47.4503 5.208 47.7983 5.94C48.1463 6.66 48.3203 7.44 48.3203 8.28V9.126H39.7163V7.704H46.8983L46.3223 8.424C46.3223 7.776 46.2203 7.218 46.0163 6.75C45.8123 6.27 45.5123 5.904 45.1163 5.652C44.7203 5.388 44.2223 5.256 43.6223 5.256C42.9983 5.256 42.4763 5.4 42.0563 5.688C41.6363 5.976 41.3243 6.372 41.1203 6.876C40.9163 7.38 40.8143 7.974 40.8143 8.658C40.8143 9.306 40.9163 9.888 41.1203 10.404C41.3243 10.908 41.6423 11.31 42.0743 11.61C42.5063 11.898 43.0583 12.042 43.7303 12.042C44.4023 12.042 44.9543 11.898 45.3863 11.61C45.8183 11.31 46.0823 10.962 46.1783 10.566H48.1403C48.0083 11.226 47.7383 11.802 47.3303 12.294C46.9343 12.786 46.4303 13.164 45.8183 13.428C45.2063 13.692 44.5103 13.824 43.7303 13.824ZM20.1261 27.68C19.3101 27.68 18.6821 27.504 18.2421 27.152C17.8021 26.792 17.5781 26.312 17.5701 25.712H18.4101C18.4261 26.016 18.5621 26.292 18.8181 26.54C19.0821 26.788 19.5181 26.912 20.1261 26.912C20.6941 26.912 21.1181 26.796 21.3981 26.564C21.6861 26.324 21.8301 26.036 21.8301 25.7C21.8301 25.388 21.7101 25.148 21.4701 24.98C21.2381 24.804 20.8981 24.692 20.4501 24.644L19.7301 24.572C19.1541 24.508 18.6861 24.332 18.3261 24.044C17.9741 23.748 17.7981 23.344 17.7981 22.832C17.7981 22.456 17.8941 22.128 18.0861 21.848C18.2781 21.568 18.5461 21.352 18.8901 21.2C19.2421 21.04 19.6541 20.96 20.1261 20.96C20.8061 20.96 21.3581 21.12 21.7821 21.44C22.2141 21.76 22.4341 22.216 22.4421 22.808H21.6021C21.5941 22.504 21.4661 22.248 21.2181 22.04C20.9701 21.832 20.6061 21.728 20.1261 21.728C19.6301 21.728 19.2581 21.836 19.0101 22.052C18.7701 22.268 18.6501 22.532 18.6501 22.844C18.6501 23.108 18.7421 23.328 18.9261 23.504C19.1101 23.672 19.3981 23.776 19.7901 23.816L20.5101 23.888C21.1501 23.96 21.6701 24.144 22.0701 24.44C22.4781 24.736 22.6821 25.16 22.6821 25.712C22.6821 26.088 22.5741 26.428 22.3581 26.732C22.1501 27.028 21.8541 27.26 21.4701 27.428C21.0861 27.596 20.6381 27.68 20.1261 27.68ZM24.4737 27.5V21.14H25.1937V23.816H25.0497C25.0497 23.232 25.1297 22.728 25.2897 22.304C25.4577 21.88 25.7057 21.552 26.0337 21.32C26.3617 21.08 26.7777 20.96 27.2817 20.96H27.3177C27.8217 20.96 28.2377 21.076 28.5657 21.308C28.8937 21.54 29.1377 21.868 29.2977 22.292C29.4577 22.716 29.5377 23.224 29.5377 23.816H29.2497C29.2497 23.232 29.3297 22.728 29.4897 22.304C29.6577 21.88 29.9057 21.552 30.2337 21.32C30.5697 21.08 30.9897 20.96 31.4937 20.96H31.5297C32.0337 20.96 32.4497 21.076 32.7777 21.308C33.1137 21.54 33.3617 21.868 33.5217 22.292C33.6897 22.716 33.7737 23.224 33.7737 23.816V27.5H32.8737V23.612C32.8737 23.052 32.7377 22.608 32.4657 22.28C32.1937 21.952 31.8017 21.788 31.2897 21.788C30.7617 21.788 30.3417 21.96 30.0297 22.304C29.7257 22.64 29.5737 23.096 29.5737 23.672V27.5H28.6737V23.612C28.6737 23.052 28.5377 22.608 28.2657 22.28C27.9937 21.952 27.6017 21.788 27.0897 21.788C26.5617 21.788 26.1417 21.96 25.8297 22.304C25.5257 22.64 25.3737 23.096 25.3737 23.672V27.5H24.4737ZM36.3527 27.5V21.152H37.2407V27.5H36.3527ZM35.3327 21.872V21.152H37.2407V21.872H35.3327ZM36.5447 19.976C36.3287 19.976 36.1647 19.92 36.0527 19.808C35.9487 19.688 35.8967 19.54 35.8967 19.364C35.8967 19.188 35.9487 19.044 36.0527 18.932C36.1647 18.812 36.3287 18.752 36.5447 18.752C36.7607 18.752 36.9207 18.812 37.0247 18.932C37.1287 19.044 37.1807 19.188 37.1807 19.364C37.1807 19.54 37.1287 19.688 37.0247 19.808C36.9207 19.92 36.7607 19.976 36.5447 19.976ZM39.6626 27.5V18.74H40.5626V27.5H39.6626ZM38.7386 19.472V18.74H40.5626V19.472H38.7386ZM45.5476 27.704C45.0036 27.704 44.5316 27.612 44.1316 27.428C43.7316 27.236 43.4036 26.984 43.1476 26.672C42.8916 26.352 42.6996 25.996 42.5716 25.604C42.4516 25.212 42.3916 24.808 42.3916 24.392V24.224C42.3916 23.816 42.4516 23.416 42.5716 23.024C42.6996 22.632 42.8916 22.28 43.1476 21.968C43.4036 21.656 43.7236 21.408 44.1076 21.224C44.4996 21.032 44.9556 20.936 45.4756 20.936C46.1396 20.936 46.6916 21.084 47.1316 21.38C47.5796 21.676 47.9156 22.056 48.1396 22.52C48.3636 22.976 48.4756 23.468 48.4756 23.996V24.464H42.7996V23.768H47.8516L47.6236 24.116C47.6236 23.644 47.5396 23.232 47.3716 22.88C47.2116 22.52 46.9716 22.24 46.6516 22.04C46.3396 21.832 45.9476 21.728 45.4756 21.728C44.9796 21.728 44.5676 21.844 44.2396 22.076C43.9116 22.308 43.6636 22.616 43.4956 23C43.3356 23.384 43.2556 23.82 43.2556 24.308C43.2556 24.788 43.3356 25.228 43.4956 25.628C43.6636 26.02 43.9156 26.332 44.2516 26.564C44.5956 26.796 45.0276 26.912 45.5476 26.912C46.0996 26.912 46.5476 26.788 46.8916 26.54C47.2356 26.284 47.4476 25.984 47.5276 25.64H48.3676C48.2876 26.064 48.1196 26.432 47.8636 26.744C47.6076 27.048 47.2836 27.284 46.8916 27.452C46.4996 27.62 46.0516 27.704 45.5476 27.704Z" fill="white"/>
</svg>
