<svg width="68" height="68" viewBox="0 0 68 68" fill="none" xmlns="http://www.w3.org/2000/svg">
<path d="M66.5348 61.7633L44.5051 39.7178L44.4634 39.7594C48.2667 34.7632 50.0299 28.5088 49.396 22.2618C48.7622 16.0148 45.7787 10.2419 41.0495 6.11149C36.3202 1.98107 30.1983 -0.198389 23.9229 0.0142104C17.6474 0.22681 11.6871 2.81559 7.24822 7.25661C2.80933 11.6976 0.223404 17.6592 0.0138112 23.9347C-0.195781 30.2103 1.98661 36.3311 6.1193 41.0584C10.252 45.7857 16.0263 48.7664 22.2736 49.3972C28.5209 50.0281 34.7745 48.2619 39.7688 44.4563L39.7339 44.4911L61.7603 66.5333C62.3932 67.1664 63.2516 67.5222 64.1468 67.5224C65.042 67.5226 65.9006 67.1672 66.5337 66.5344C67.1668 65.9015 67.5226 65.0431 67.5229 64.1479C67.5231 63.2527 67.1677 62.3941 66.5348 61.761V61.7633ZM24.7726 42.7733C21.2125 42.7733 17.7324 41.7176 14.7723 39.7397C11.8122 37.7618 9.50512 34.9506 8.14274 31.6616C6.78036 28.3725 6.4239 24.7533 7.11843 21.2616C7.81297 17.77 9.5273 14.5627 12.0446 12.0453C14.562 9.52799 17.7693 7.81366 21.2609 7.11912C24.7526 6.42459 28.3718 6.78105 31.6609 8.14342C34.9499 9.5058 37.7612 11.8129 39.739 14.773C41.7169 17.7331 42.7726 21.2132 42.7726 24.7733C42.772 29.547 40.8754 34.125 37.4998 37.5005C34.1243 40.876 29.5463 42.7727 24.7726 42.7733Z" fill="#10375C"/>
</svg>
